<?xml version="1.0" encoding="UTF-8" standalone="no"?>
<!-- Generator: Adobe Illustrator 19.0.0, SVG Export Plug-In . SVG Version: 6.00 Build 0)  -->

<svg
   xmlns:dc="http://purl.org/dc/elements/1.1/"
   xmlns:cc="http://creativecommons.org/ns#"
   xmlns:rdf="http://www.w3.org/1999/02/22-rdf-syntax-ns#"
   xmlns:svg="http://www.w3.org/2000/svg"
   xmlns="http://www.w3.org/2000/svg"
   xmlns:sodipodi="http://sodipodi.sourceforge.net/DTD/sodipodi-0.dtd"
   xmlns:inkscape="http://www.inkscape.org/namespaces/inkscape"
   version="1.1"
   id="Layer_1"
   x="0px"
   y="0px"
   viewBox="0 0 59.999999 60"
   xml:space="preserve"
   sodipodi:docname="ship.svg"
   inkscape:version="0.92.2 5c3e80d, 2017-08-06"
   width="60"
   height="60"><metadata
     id="metadata55"><rdf:RDF><cc:Work
         rdf:about=""><dc:format>image/svg+xml</dc:format><dc:type
           rdf:resource="http://purl.org/dc/dcmitype/StillImage" /><dc:title></dc:title></cc:Work></rdf:RDF></metadata><defs
     id="defs53" /><sodipodi:namedview
     pagecolor="#ffffff"
     bordercolor="#666666"
     borderopacity="1"
     objecttolerance="10"
     gridtolerance="10"
     guidetolerance="10"
     inkscape:pageopacity="0"
     inkscape:pageshadow="2"
     inkscape:window-width="1290"
     inkscape:window-height="719"
     id="namedview51"
     showgrid="false"
     inkscape:zoom="0.9218894"
     inkscape:cx="-138.84606"
     inkscape:cy="-90.825562"
     inkscape:window-x="-1"
     inkscape:window-y="40"
     inkscape:window-maximized="0"
     inkscape:current-layer="Layer_1"
     fit-margin-top="0"
     fit-margin-left="0"
     fit-margin-right="0"
     fit-margin-bottom="0" /><g
     id="g6"
     transform="matrix(-0.12001947,0,0,0.12001947,61.449008,-0.038744)"><g
       id="g4"><path
         inkscape:connector-curvature="0"
         d="M 503.467,255.996 H 8.534 c -3.208,0 -6.144,1.801 -7.603,4.659 -1.459,2.859 -1.186,6.298 0.708,8.892 l 68.267,93.867 c 1.604,2.21 4.156,3.516 6.886,3.516 40.823,0 356.617,0 384.068,0 1.289,0 2.543,-0.299 3.695,-0.87 41.779,-20.855 47.437,-62.985 47.437,-101.461 0.008,-4.738 -3.798,-8.603 -8.525,-8.603 z m -392.533,29.867 c 0,2.355 -1.911,4.267 -4.267,4.267 h -8.533 c -2.355,0 -4.267,-1.911 -4.267,-4.267 v -8.533 c 0,-2.355 1.911,-4.267 4.267,-4.267 h 8.533 c 2.355,0 4.267,1.911 4.267,4.267 z m 34.133,0 c 0,2.355 -1.911,4.267 -4.267,4.267 h -8.533 c -2.355,0 -4.267,-1.911 -4.267,-4.267 v -8.533 c 0,-2.355 1.911,-4.267 4.267,-4.267 h 8.533 c 2.355,0 4.267,1.911 4.267,4.267 z m 34.133,0 c 0,2.355 -1.911,4.267 -4.267,4.267 H 166.4 c -2.355,0 -4.267,-1.911 -4.267,-4.267 v -8.533 c 0,-2.355 1.911,-4.267 4.267,-4.267 h 8.533 c 2.355,0 4.267,1.911 4.267,4.267 z m 34.134,0 c 0,2.355 -1.911,4.267 -4.267,4.267 h -8.533 c -2.355,0 -4.267,-1.911 -4.267,-4.267 v -8.533 c 0,-2.355 1.911,-4.267 4.267,-4.267 h 8.533 c 2.355,0 4.267,1.911 4.267,4.267 z m 34.133,0 c 0,2.355 -1.911,4.267 -4.267,4.267 h -8.533 c -2.355,0 -4.267,-1.911 -4.267,-4.267 v -8.533 c 0,-2.355 1.911,-4.267 4.267,-4.267 h 8.533 c 2.355,0 4.267,1.911 4.267,4.267 z m 34.133,0 c 0,2.355 -1.911,4.267 -4.267,4.267 H 268.8 c -2.355,0 -4.267,-1.911 -4.267,-4.267 v -8.533 c 0,-2.355 1.911,-4.267 4.267,-4.267 h 8.533 c 2.355,0 4.267,1.911 4.267,4.267 z m 34.134,0 c 0,2.355 -1.911,4.267 -4.267,4.267 h -8.533 c -2.355,0 -4.267,-1.911 -4.267,-4.267 v -8.533 c 0,-2.355 1.911,-4.267 4.267,-4.267 h 8.533 c 2.355,0 4.267,1.911 4.267,4.267 z m 34.133,0 c 0,2.355 -1.911,4.267 -4.267,4.267 h -8.533 c -2.355,0 -4.267,-1.911 -4.267,-4.267 v -8.533 c 0,-2.355 1.911,-4.267 4.267,-4.267 h 8.533 c 2.355,0 4.267,1.911 4.267,4.267 z m 34.133,0 c 0,2.355 -1.911,4.267 -4.267,4.267 H 371.2 c -2.355,0 -4.267,-1.911 -4.267,-4.267 v -8.533 c 0,-2.355 1.911,-4.267 4.267,-4.267 h 8.533 c 2.355,0 4.267,1.911 4.267,4.267 z m 34.134,0 c 0,2.355 -1.911,4.267 -4.267,4.267 h -8.533 c -2.355,0 -4.267,-1.911 -4.267,-4.267 v -8.533 c 0,-2.355 1.911,-4.267 4.267,-4.267 h 8.533 c 2.355,0 4.267,1.911 4.267,4.267 z m 34.133,0 c 0,2.355 -1.911,4.267 -4.267,4.267 h -8.533 c -2.355,0 -4.267,-1.911 -4.267,-4.267 v -8.533 c 0,-2.355 1.911,-4.267 4.267,-4.267 H 448 c 2.355,0 4.267,1.911 4.267,4.267 z"
         id="path2" /></g></g><g
     id="g12"
     transform="matrix(-0.12001947,0,0,0.12001947,61.449008,-0.038744)"><g
       id="g10"><path
         inkscape:connector-curvature="0"
         d="m 439.45,190.451 -5.589,-14.353 c -1.271,-3.277 -4.429,-5.436 -7.945,-5.436 h -33.382 v -21.333 c 0,-2.355 -1.911,-4.267 -4.267,-4.267 h -8.533 c -2.355,0 -4.267,1.911 -4.267,4.267 v 21.333 H 332.8 v -21.333 c 0,-2.355 -1.911,-4.267 -4.267,-4.267 H 320 c -2.355,0 -4.267,1.911 -4.267,4.267 v 21.333 h -42.667 v -21.333 c 0,-2.355 -1.911,-4.267 -4.267,-4.267 h -8.533 c -2.355,0 -4.267,1.911 -4.267,4.267 v 21.333 h -35.396 c -3.516,0 -6.673,2.159 -7.953,5.436 l -5.589,14.345 c -1.084,2.799 0.981,5.82 3.977,5.82 h 224.435 c 3.004,0 5.069,-3.021 3.977,-5.812 z"
         id="path8" /></g></g><g
     id="g18"
     transform="matrix(-0.12001947,0,0,0.12001947,61.449008,-0.038744)"><g
       id="g16"><path
         inkscape:connector-curvature="0"
         d="m 475.836,233.237 -5.052,-14.234 c -1.203,-3.405 -4.429,-5.675 -8.038,-5.675 H 131.328 c -3.61,0 -6.835,2.27 -8.038,5.675 l -5.052,14.225 c -0.99,2.782 1.067,5.7 4.011,5.7 h 349.568 c 2.944,0.001 5.009,-2.917 4.019,-5.691 z"
         id="path14" /></g></g><g
     id="g20"
     transform="translate(-10.848049,24.997018)" /><g
     id="g22"
     transform="translate(-10.848049,24.997018)" /><g
     id="g24"
     transform="translate(-10.848049,24.997018)" /><g
     id="g26"
     transform="translate(-10.848049,24.997018)" /><g
     id="g28"
     transform="translate(-10.848049,24.997018)" /><g
     id="g30"
     transform="translate(-10.848049,24.997018)" /><g
     id="g32"
     transform="translate(-10.848049,24.997018)" /><g
     id="g34"
     transform="translate(-10.848049,24.997018)" /><g
     id="g36"
     transform="translate(-10.848049,24.997018)" /><g
     id="g38"
     transform="translate(-10.848049,24.997018)" /><g
     id="g40"
     transform="translate(-10.848049,24.997018)" /><g
     id="g42"
     transform="translate(-10.848049,24.997018)" /><g
     id="g44"
     transform="translate(-10.848049,24.997018)" /><g
     id="g46"
     transform="translate(-10.848049,24.997018)" /><g
     id="g48"
     transform="translate(-10.848049,24.997018)" /></svg>