<?xml version="1.0" encoding="UTF-8" standalone="no"?>
<!-- Generator: Adobe Illustrator 19.0.0, SVG Export Plug-In . SVG Version: 6.00 Build 0)  -->

<svg
   xmlns:dc="http://purl.org/dc/elements/1.1/"
   xmlns:cc="http://creativecommons.org/ns#"
   xmlns:rdf="http://www.w3.org/1999/02/22-rdf-syntax-ns#"
   xmlns:svg="http://www.w3.org/2000/svg"
   xmlns="http://www.w3.org/2000/svg"
   xmlns:sodipodi="http://sodipodi.sourceforge.net/DTD/sodipodi-0.dtd"
   xmlns:inkscape="http://www.inkscape.org/namespaces/inkscape"
   version="1.1"
   id="Layer_1"
   x="0px"
   y="0px"
   viewBox="0 0 511.992 511.992"
   style="enable-background:new 0 0 511.992 511.992;"
   xml:space="preserve"
   sodipodi:docname="shipori.svg"
   inkscape:version="0.92.2 5c3e80d, 2017-08-06"><metadata
     id="metadata55"><rdf:RDF><cc:Work
         rdf:about=""><dc:format>image/svg+xml</dc:format><dc:type
           rdf:resource="http://purl.org/dc/dcmitype/StillImage" /><dc:title></dc:title></cc:Work></rdf:RDF></metadata><defs
     id="defs53" /><sodipodi:namedview
     pagecolor="#ffffff"
     bordercolor="#666666"
     borderopacity="1"
     objecttolerance="10"
     gridtolerance="10"
     guidetolerance="10"
     inkscape:pageopacity="0"
     inkscape:pageshadow="2"
     inkscape:window-width="740"
     inkscape:window-height="480"
     id="namedview51"
     showgrid="false"
     inkscape:zoom="0.4609447"
     inkscape:cx="255.996"
     inkscape:cy="255.996"
     inkscape:window-x="0"
     inkscape:window-y="0"
     inkscape:window-maximized="0"
     inkscape:current-layer="Layer_1" /><g
     id="g6"><g
       id="g4"><path
         d="M503.467,255.996H8.534c-3.208,0-6.144,1.801-7.603,4.659c-1.459,2.859-1.186,6.298,0.708,8.892l68.267,93.867    c1.604,2.21,4.156,3.516,6.886,3.516c40.823,0,356.617,0,384.068,0c1.289,0,2.543-0.299,3.695-0.87    c41.779-20.855,47.437-62.985,47.437-101.461C512,259.861,508.194,255.996,503.467,255.996z M110.934,285.863    c0,2.355-1.911,4.267-4.267,4.267h-8.533c-2.355,0-4.267-1.911-4.267-4.267v-8.533c0-2.355,1.911-4.267,4.267-4.267h8.533    c2.355,0,4.267,1.911,4.267,4.267V285.863z M145.067,285.863c0,2.355-1.911,4.267-4.267,4.267h-8.533    c-2.355,0-4.267-1.911-4.267-4.267v-8.533c0-2.355,1.911-4.267,4.267-4.267h8.533c2.355,0,4.267,1.911,4.267,4.267V285.863z     M179.2,285.863c0,2.355-1.911,4.267-4.267,4.267H166.4c-2.355,0-4.267-1.911-4.267-4.267v-8.533c0-2.355,1.911-4.267,4.267-4.267    h8.533c2.355,0,4.267,1.911,4.267,4.267V285.863z M213.334,285.863c0,2.355-1.911,4.267-4.267,4.267h-8.533    c-2.355,0-4.267-1.911-4.267-4.267v-8.533c0-2.355,1.911-4.267,4.267-4.267h8.533c2.355,0,4.267,1.911,4.267,4.267V285.863z     M247.467,285.863c0,2.355-1.911,4.267-4.267,4.267h-8.533c-2.355,0-4.267-1.911-4.267-4.267v-8.533    c0-2.355,1.911-4.267,4.267-4.267h8.533c2.355,0,4.267,1.911,4.267,4.267V285.863z M281.6,285.863    c0,2.355-1.911,4.267-4.267,4.267H268.8c-2.355,0-4.267-1.911-4.267-4.267v-8.533c0-2.355,1.911-4.267,4.267-4.267h8.533    c2.355,0,4.267,1.911,4.267,4.267V285.863z M315.734,285.863c0,2.355-1.911,4.267-4.267,4.267h-8.533    c-2.355,0-4.267-1.911-4.267-4.267v-8.533c0-2.355,1.911-4.267,4.267-4.267h8.533c2.355,0,4.267,1.911,4.267,4.267V285.863z     M349.867,285.863c0,2.355-1.911,4.267-4.267,4.267h-8.533c-2.355,0-4.267-1.911-4.267-4.267v-8.533    c0-2.355,1.911-4.267,4.267-4.267h8.533c2.355,0,4.267,1.911,4.267,4.267V285.863z M384,285.863c0,2.355-1.911,4.267-4.267,4.267    H371.2c-2.355,0-4.267-1.911-4.267-4.267v-8.533c0-2.355,1.911-4.267,4.267-4.267h8.533c2.355,0,4.267,1.911,4.267,4.267V285.863z     M418.134,285.863c0,2.355-1.911,4.267-4.267,4.267h-8.533c-2.355,0-4.267-1.911-4.267-4.267v-8.533    c0-2.355,1.911-4.267,4.267-4.267h8.533c2.355,0,4.267,1.911,4.267,4.267V285.863z M452.267,285.863    c0,2.355-1.911,4.267-4.267,4.267h-8.533c-2.355,0-4.267-1.911-4.267-4.267v-8.533c0-2.355,1.911-4.267,4.267-4.267H448    c2.355,0,4.267,1.911,4.267,4.267V285.863z"
         id="path2" /></g></g><g
     id="g12"><g
       id="g10"><path
         d="M439.45,190.451l-5.589-14.353c-1.271-3.277-4.429-5.436-7.945-5.436h-33.382v-21.333c0-2.355-1.911-4.267-4.267-4.267    h-8.533c-2.355,0-4.267,1.911-4.267,4.267v21.333H332.8v-21.333c0-2.355-1.911-4.267-4.267-4.267H320    c-2.355,0-4.267,1.911-4.267,4.267v21.333h-42.667v-21.333c0-2.355-1.911-4.267-4.267-4.267h-8.533    c-2.355,0-4.267,1.911-4.267,4.267v21.333h-35.396c-3.516,0-6.673,2.159-7.953,5.436l-5.589,14.345    c-1.084,2.799,0.981,5.82,3.977,5.82h224.435C438.477,196.263,440.542,193.242,439.45,190.451z"
         id="path8" /></g></g><g
     id="g18"><g
       id="g16"><path
         d="M475.836,233.237l-5.052-14.234c-1.203-3.405-4.429-5.675-8.038-5.675H131.328c-3.61,0-6.835,2.27-8.038,5.675    l-5.052,14.225c-0.99,2.782,1.067,5.7,4.011,5.7h349.568C474.761,238.929,476.826,236.011,475.836,233.237z"
         id="path14" /></g></g><g
     id="g20" /><g
     id="g22" /><g
     id="g24" /><g
     id="g26" /><g
     id="g28" /><g
     id="g30" /><g
     id="g32" /><g
     id="g34" /><g
     id="g36" /><g
     id="g38" /><g
     id="g40" /><g
     id="g42" /><g
     id="g44" /><g
     id="g46" /><g
     id="g48" /></svg>